<?xml version="1.0" encoding="UTF-8"?>
<svg version="1.1" xmlns="http://www.w3.org/2000/svg" width="512" height="512">
<path d="M0 0 C85.8 0 171.6 0 260 0 C260 85.8 260 171.6 260 260 C174.2 260 88.4 260 0 260 C0 174.2 0 88.4 0 0 Z " fill="#F4DD18" transform="translate(126,126)"/>
<path d="M0 0 C4.52501657 3.30069764 8.49604857 7.4343986 11.1875 12.375 C9.68104762 16.89435713 6.29641098 18.23447388 2.375 20.6875 C1.64990234 21.16767578 0.92480469 21.64785156 0.17773438 22.14257812 C-0.52673828 22.58666016 -1.23121094 23.03074219 -1.95703125 23.48828125 C-2.60003174 23.89860596 -3.24303223 24.30893066 -3.90551758 24.73168945 C-5.8125 25.375 -5.8125 25.375 -7.90112305 24.64916992 C-9.8125 23.375 -9.8125 23.375 -12.25 20.875 C-15.83836101 17.37415999 -18.30949565 16.53896411 -23.25 16 C-27.47895319 16.44515297 -29.53620172 17.72275853 -32.8125 20.375 C-34.3672669 23.48453379 -34.09894437 25.93766761 -33.8125 29.375 C-31.12103095 34.46016907 -28.14206656 36.72319589 -22.9921875 38.9609375 C-22.33348663 39.2664151 -21.67478577 39.5718927 -20.99612427 39.8866272 C-18.90026611 40.85737727 -16.79544922 41.80582449 -14.6875 42.75 C-0.13403267 49.29431313 12.1772414 55.54596415 18.31640625 71.265625 C21.19736756 81.54923578 19.31252975 91.20461344 14.1875 100.375 C9.43748206 108.34133103 1.07063123 111.86893953 -7.5234375 114.51953125 C-21.92164495 117.87340621 -37.97430272 116.39444385 -50.5625 108.625 C-56.51938976 104.34687008 -62.6419477 99.11242363 -65.8125 92.375 C-65.8125 91.715 -65.8125 91.055 -65.8125 90.375 C-64.06835938 89.13818359 -64.06835938 89.13818359 -61.65625 87.7734375 C-60.79902344 87.28359375 -59.94179688 86.79375 -59.05859375 86.2890625 C-58.15238281 85.78117187 -57.24617188 85.27328125 -56.3125 84.75 C-55.40628906 84.234375 -54.50007813 83.71875 -53.56640625 83.1875 C-51.3188144 81.90992148 -49.06747896 80.63948008 -46.8125 79.375 C-44.63256263 81.55031886 -42.46313935 83.73309466 -40.3125 85.9375 C-35.00642925 91.11091898 -30.44952499 93.43402676 -22.9375 93.6875 C-17.91320287 93.56624999 -14.30321144 92.65974793 -9.8125 90.375 C-6.74011284 87.01457655 -6.43037556 83.8110949 -6.21875 79.4375 C-7.46352327 75.11355074 -11.06837789 72.80785534 -14.80078125 70.63671875 C-15.89777344 70.11722656 -16.99476563 69.59773438 -18.125 69.0625 C-19.36458985 68.46225303 -20.6041729 67.86199204 -21.84375 67.26171875 C-23.16620289 66.63183787 -24.48913254 66.00295713 -25.8125 65.375 C-40.44387951 58.42232888 -51.5632083 52.78241675 -58.1875 37.125 C-59.77982705 27.57103771 -59.93571494 18.80134036 -54.8125 10.375 C-54.461875 9.75109375 -54.11125 9.1271875 -53.75 8.484375 C-49.45142541 1.61859614 -42.14325883 -2.90040579 -34.44921875 -5.15625 C-22.87765184 -7.21341745 -10.17350989 -6.17616114 0 0 Z " fill="#020200" transform="translate(346.8125,249.625)"/>
<path d="M0 0 C8.25 0 16.5 0 25 0 C25.06799646 11.39690332 25.12294297 22.79367011 25.15543652 34.19073105 C25.17103815 39.48383928 25.19217511 44.77680054 25.22631836 50.06982422 C25.25910903 55.1856555 25.27689431 60.30134614 25.28463173 65.41727448 C25.29014005 67.36113954 25.30089569 69.30499761 25.31719017 71.24880219 C25.55035315 100.23765463 25.55035315 100.23765463 15.109375 110.9375 C4.86328505 120.32323125 -5.66907198 120.57935483 -18.90478516 120.12304688 C-28.15061977 119.58006148 -35.24388134 115.15346019 -42 109 C-44.29666446 106.14133865 -46.23732409 103.21297888 -48 100 C-46.50372104 95.28346848 -42.64888603 93.55381934 -38.625 91.1875 C-37.61566406 90.55811523 -37.61566406 90.55811523 -36.5859375 89.91601562 C-31.57752254 86.92378346 -31.57752254 86.92378346 -28.87255859 87.28076172 C-26.31198342 88.26426295 -25.50578584 89.67472943 -24 91.9375 C-21.95773742 94.99534424 -20.48841442 96.70676652 -17 98 C-11.9595412 98.32519089 -7.57454159 98.39618845 -3 96 C-0.75545386 91.04255307 -0.69519659 86.38824579 -0.68115234 81.05712891 C-0.66608391 79.73908264 -0.66608391 79.73908264 -0.65071106 78.39440918 C-0.61994926 75.50513329 -0.6028634 72.61594977 -0.5859375 69.7265625 C-0.56722022 67.71730763 -0.54764639 65.70806057 -0.5272522 63.69882202 C-0.47598419 58.42173881 -0.43632988 53.14463013 -0.39910889 47.86743164 C-0.35903585 42.47796353 -0.30795855 37.08860088 -0.2578125 31.69921875 C-0.16111624 21.13287932 -0.07770876 10.56649615 0 0 Z " fill="#040400" transform="translate(243,245)"/>
</svg>
